<svg width="498" height="403" viewBox="0 0 498 403" fill="none" xmlns="http://www.w3.org/2000/svg">
<path d="M225.61 403H367.884V177.576H268.219C245.479 177.576 227.044 195.975 227.044 218.672L225.61 403Z" fill="#B76F58"/>
<path d="M124.748 403H268.938V107.409C268.938 57.4752 226.947 16.9961 176.917 16.9961H110.266C56.4417 16.9961 14.4899 63.5614 20.1881 116.981L42.8589 329.508C47.3162 371.297 82.641 403 124.748 403Z" fill="#B76F58"/>
<path d="M104.858 403H268.937V107.409C268.937 57.4752 228.38 16.9961 178.35 16.9961H161.582C113.343 16.9961 75.4332 58.1924 79.5265 106.165L104.858 403Z" fill="#D69176"/>
<path d="M137.193 403H326.938L326.707 282.892C326.707 260.195 308.272 241.796 285.531 241.796H50.6976L54.9478 324.992C57.181 368.702 93.3412 403 137.193 403Z" fill="#D69176"/>
<path d="M138.705 213.839C141.819 208.66 164.221 193.839 201.28 194.935C204.927 199.94 237.515 233.566 237.515 233.566C237.515 233.566 236.417 270.552 213.633 276.306C187.382 282.934 151.445 272.156 145.292 249.182C140.449 231.094 142.205 229.25 138.705 213.839Z" fill="#FFB74D"/>
<path d="M216.515 134.596C212.917 137.507 206.015 142.423 203.339 155.54C201.834 162.915 188.818 106.394 169.06 96.3442C149.507 86.3983 154.413 125.99 154.413 125.99C154.413 125.99 177.299 195.364 184.398 198.075C205.048 205.96 232.307 170.334 226.872 141.309C227.739 140.404 218.795 132.753 216.515 134.596Z" fill="#797D62"/>
<path d="M497.121 148.976C494.851 146.175 491.334 147.168 485.356 149.513C476.789 152.873 448.052 152.803 448.052 152.803L431.524 167.557L453.285 171.995C456.583 178.491 463.354 179.992 467.853 176.602L496.363 155.119C498.182 153.736 498.559 150.75 497.121 148.976Z" fill="black"/>
<path d="M245.409 240.973C245.409 240.973 279.723 208.644 303.484 178.536C348.185 181.018 388.033 174.454 450.614 171.773L454.925 151.627C387.558 134.949 345.474 132.596 296.075 126.174C264.879 128.017 202.859 198.227 183.043 215.411C171.997 230.569 187.64 251.694 201.12 250.965C221.639 249.855 245.409 240.973 245.409 240.973Z" fill="#25544B"/>
<path d="M202.063 194.776C202.063 194.776 197.376 176.61 193.743 159.453C191.874 150.631 199.484 141.553 195.241 133.622C190.656 125.052 184.71 104.536 180.42 98.2649C177.136 93.4657 171.816 90.4464 166.01 90.0124C149.932 88.8113 142.725 91.0319 132.159 90.9278C106.438 90.6754 106.057 93.8671 98.3402 98.6206C98.8151 100.707 106.13 139.302 109.501 151.098C115.686 172.741 135.22 200.95 138.293 211.521L202.063 194.776Z" fill="#9B9B7A"/>
<path d="M155.686 5.92234C154.828 5.77325 153.963 5.64082 153.084 5.54919L153.034 6.02147C153.908 5.94068 154.793 5.90735 155.686 5.92234Z" fill="#D69176"/>
<path d="M174.171 14.8105C178.362 19.8946 180.495 26.6455 179.513 33.6812L175.381 63.3265C173.826 74.4843 152.324 80.7179 152.324 80.7179L153.516 93.6898L160.466 99.4703C164.594 102.904 164.66 109.211 160.605 112.73C155.581 117.091 157.105 125.235 163.367 127.491L179.045 133.142L176.359 130.461C172.308 126.418 173.193 119.644 178.147 116.773L184.293 113.211C189.174 110.382 190.12 103.742 186.224 99.6676L183.296 96.6067C179.709 92.856 180.181 86.8265 184.307 83.6772L186.707 81.8465C189.11 80.0116 190.391 77.0713 190.089 74.0662C188.947 62.6951 186.153 34.7889 185.731 29.5032C185.178 22.5791 181.284 21.0974 174.171 14.8105Z" fill="black"/>
<path d="M147.164 106.862C139.114 107.457 132.104 101.427 131.508 93.3916L129.448 65.6286L154.526 63.7745L156.889 95.603C157.319 101.393 152.965 106.433 147.164 106.862Z" fill="#FFAF99"/>
<path d="M152.324 80.7178C163.504 82.2704 173.826 74.4834 175.381 63.3264L179.513 33.6811C181.374 20.3319 172.04 8.00466 158.665 6.14808C145.291 4.29066 132.939 13.6069 131.078 26.9561L128.053 48.6637C125.886 64.2043 136.754 78.5555 152.324 80.7178Z" fill="#FFAF99"/>
<path d="M125.516 15.6059C118.029 30.9449 101.529 68.4506 101.529 68.4506C101.529 68.4506 95.497 74.4734 101.634 83.8263C106.606 91.4042 93.5099 94.4602 93.399 106.019C95.1832 101.224 98.7516 96.3609 109.869 94.5118C116.647 93.384 120.733 100.202 130.303 88.5073C135.206 57.6159 127.73 57.2461 127.779 52.3294C127.784 51.8263 129.216 45.0571 129.216 45.0571C132.149 45.1213 134.665 42.984 135.069 40.0838L136.788 27.749C138.022 18.8959 146.213 12.7181 155.083 13.9492L157.53 14.289C159.699 14.5897 161.79 14.952 163.766 15.4043C173.975 17.744 181.073 22.4966 179.514 33.6811L177.248 49.9355C182.485 47.1011 184.635 42.0045 185.377 36.334C187.17 22.6457 180.132 8.28033 167.224 3.32029C148.575 -3.84617 132.772 0.740729 125.516 15.6059Z" fill="black"/>
<path d="M160.202 58.468C159.519 58.468 158.899 58.4297 158.349 58.3539C157.892 58.2906 157.573 57.8699 157.637 57.4143C157.701 56.9587 158.122 56.6406 158.578 56.7039C159.654 56.8538 161.126 56.8305 162.835 56.6389C163.322 56.5839 163.746 56.309 163.997 55.8843C164.25 55.4553 164.286 54.9464 164.096 54.4874C161.613 48.5121 160.468 44.664 160.694 43.0489C160.757 42.5933 161.185 42.2727 161.635 42.3385C162.091 42.4018 162.41 42.8224 162.347 43.278C162.173 44.5207 163.404 48.4721 165.638 53.8486C166.032 54.7956 165.958 55.846 165.436 56.7297C164.916 57.6101 164.037 58.1798 163.023 58.2939C161.988 58.4105 161.047 58.468 160.202 58.468ZM160.234 69.6733C159.698 69.6733 159.16 69.6366 158.62 69.5617C155.567 69.1377 152.862 67.5527 151.003 65.098C150.725 64.7307 150.798 64.2085 151.166 63.9311C151.534 63.6538 152.057 63.7262 152.335 64.0935C155.617 68.4281 161.82 69.2885 166.161 66.0134C166.529 65.7361 167.053 65.8085 167.331 66.1758C167.608 66.5432 167.536 67.0654 167.168 67.3428C165.143 68.8687 162.728 69.6733 160.234 69.6733Z" fill="#263238"/>
<path d="M137.231 73.723C137.231 73.723 137.591 73.8929 138.19 74.2244C138.795 74.5326 139.633 74.9865 140.648 75.4888C142.683 76.4833 145.377 77.6744 148.182 78.5214C148.879 78.7455 149.589 78.9304 150.286 79.1186C150.987 79.2919 151.681 79.4576 152.357 79.6026C153.042 79.75 153.669 79.8624 154.303 79.9566C154.928 80.0457 155.525 80.1248 156.083 80.1773C156.628 80.2181 157.183 80.2681 157.594 80.2789C158.067 80.2689 158.483 80.2864 158.825 80.2956C159.509 80.3164 159.906 80.3572 159.906 80.3572C159.906 80.3572 159.547 80.5313 158.911 80.7853C158.593 80.9102 158.208 81.0685 157.76 81.2209C157.251 81.3883 156.751 81.5091 156.15 81.6107C155.559 81.7173 154.91 81.8032 154.219 81.8365C153.538 81.8698 152.779 81.8631 152.042 81.7973C150.552 81.6782 148.972 81.38 147.442 80.9094C146.68 80.6662 145.925 80.3997 145.206 80.0782C144.843 79.9257 144.49 79.7625 144.147 79.5826C143.801 79.4143 143.465 79.2377 143.143 79.0445C142.493 78.6788 141.887 78.2816 141.336 77.8793C140.778 77.4861 140.286 77.0647 139.841 76.6723C139.391 76.2867 139.012 75.8936 138.682 75.5437C138.346 75.2006 138.085 74.8616 137.863 74.6017C137.449 74.0561 137.231 73.723 137.231 73.723Z" fill="#F78C74"/>
<path d="M128.953 53.5672C131.972 52.5902 133.26 48.2286 131.829 43.8252C130.399 39.4218 126.792 36.6441 123.773 37.621C120.754 38.598 119.466 42.9596 120.896 47.3631C122.327 51.7665 125.934 54.5441 128.953 53.5672Z" fill="#FFAF99"/>
<path d="M129.216 45.0555C127.682 45.387 127.055 46.1958 127.105 47.0387C127.164 48.0399 127.948 49.5316 129.32 50.2871C129.093 50.6144 128.785 50.851 128.39 50.9784C126.749 51.5098 124.775 50.517 123.809 47.5443C122.844 44.5732 123.392 41.7338 125.032 41.2024C126.675 40.6719 128.251 42.0845 129.216 45.0555Z" fill="#F78C74"/>
<path d="M149.898 45.5998C150.897 45.7385 151.891 44.5301 152.118 42.9008C152.345 41.2715 151.719 39.8382 150.721 39.6995C149.722 39.5609 148.728 40.7692 148.501 42.3985C148.274 44.0278 148.899 45.4611 149.898 45.5998Z" fill="#263238"/>
<path d="M169.571 48.3304C170.569 48.469 171.563 47.2606 171.79 45.6313C172.017 44.0019 171.391 42.5687 170.392 42.4301C169.394 42.2915 168.4 43.5 168.173 45.1293C167.946 46.7587 168.572 48.1918 169.571 48.3304Z" fill="#263238"/>
<path d="M175.847 38.1314C175.598 38.1314 175.352 38.0206 175.187 37.8091C173.868 36.1124 171.643 35.1604 169.07 35.1887C169.067 35.1887 169.063 35.1887 169.059 35.1887C168.603 35.1887 168.23 34.823 168.225 34.3658C168.219 33.906 168.588 33.5287 169.049 33.5229C172.15 33.4954 174.862 34.6748 176.506 36.7879C176.788 37.151 176.722 37.6741 176.358 37.9565C176.206 38.0748 176.026 38.1314 175.847 38.1314ZM156.274 33.4562C156.191 33.4562 156.108 33.4437 156.025 33.4179C151.867 32.121 148.675 32.0694 146.27 33.2596C145.857 33.4645 145.356 33.2955 145.151 32.8832C144.947 32.4709 145.116 31.9711 145.529 31.7671C148.338 30.3786 151.935 30.3977 156.522 31.8279C156.962 31.9653 157.207 32.4325 157.069 32.8715C156.958 33.2272 156.63 33.4554 156.274 33.4562Z" fill="#263238"/>
<path d="M204.412 163.54L211.541 163.584C218.915 163.631 224.93 157.701 224.977 150.342L225.119 127.6L191.287 127.388L191.144 150.129C191.098 157.49 197.038 163.494 204.412 163.54Z" fill="black"/>
<path d="M227.53 157.8C227.93 157.277 230.414 153.636 231.856 149.46C233.107 145.839 231.903 139.835 231.854 139.403C231.854 139.403 226.533 132.875 225.09 133.693C224.364 135.591 225.055 139.308 225.046 140.793C222.707 141.762 220.501 142.581 219.846 142.705C214.543 143.713 216.928 147.423 220.414 146.826C221.25 146.683 222.931 146.302 224.866 145.778C222.011 147.017 218.866 148.219 218.062 148.371C213.912 149.161 215.092 151.501 216.985 152.276C213.813 153.445 215.451 156.77 217.74 156.37C217.803 156.36 217.876 156.345 217.951 156.331C215.928 157.72 217.454 160.374 219.513 160.014C221.982 159.585 228.527 157.257 227.53 157.8ZM209.558 139.109C208.309 138.794 203.478 137.949 197.561 137.814C191.462 137.675 183.111 141.24 180.154 143.111C176.689 147.207 177.729 147.37 174.647 151.858C172.491 154.999 181.1 162.701 187.913 163.362C191.472 163.707 196.84 161.37 197.304 160.703C197.611 160.263 202.655 157.988 202.908 157.527C203.391 156.652 206.252 158.149 207.058 155.113C207.763 149.842 212.234 147.292 209.074 144.342C213.658 143.812 214.143 140.261 209.558 139.109Z" fill="#FFAF99"/>
<path d="M187.914 163.363C173.642 196.24 134.614 217.743 103.857 203.829C74.8698 184.584 82.0067 114.711 97.5164 99.4436C100.868 96.1444 110.641 102.798 111.517 109.307C115.296 137.398 132.517 117.116 134.575 172.185C145.281 169.034 154.127 157.044 176.899 148.062C181.104 155.745 184.878 157.608 187.914 163.363Z" fill="#797D62"/>
<path d="M111.681 109.28L112.071 111.406C112.2 112.115 112.389 112.802 112.546 113.499C112.889 114.886 113.33 116.246 113.83 117.575C114.376 118.884 114.962 120.178 115.741 121.354C116.497 122.541 117.365 123.648 118.357 124.654C120.315 126.683 122.648 128.418 124.671 130.586C125.695 131.653 126.632 132.817 127.459 134.051L128.069 134.984L128.625 135.949C129.009 136.587 129.324 137.256 129.651 137.92C130.289 139.256 130.842 140.627 131.322 142.016C131.584 142.706 131.786 143.41 132.001 144.111C132.22 144.813 132.43 145.517 132.599 146.227C132.776 146.937 132.971 147.643 133.133 148.356L133.59 150.497C133.892 151.927 134.113 153.364 134.368 154.8C134.565 156.241 134.798 157.68 134.964 159.122C135.119 160.564 135.312 162.008 135.438 163.453C135.562 164.898 135.713 166.343 135.815 167.789L136.116 172.128L134.137 170.708C135.022 170.355 135.922 170.084 136.779 169.631C137.65 169.243 138.494 168.754 139.343 168.28C140.186 167.788 141.015 167.251 141.851 166.722L144.334 165.042L149.338 161.579C151.022 160.423 152.742 159.299 154.481 158.199C155.342 157.637 156.227 157.108 157.119 156.59C158.001 156.058 158.897 155.549 159.804 155.059C160.705 154.558 161.603 154.054 162.536 153.611C163.463 153.159 164.376 152.682 165.31 152.251L168.136 151.004C169.076 150.588 170.046 150.239 171.004 149.869L172.443 149.32C172.925 149.145 173.419 148.997 173.906 148.835L176.838 147.908C176.926 147.88 177.02 147.929 177.047 148.017C177.072 148.095 177.036 148.178 176.966 148.214L176.96 148.218L174.253 149.645C173.345 150.104 172.451 150.587 171.568 151.086C170.686 151.59 169.784 152.05 168.911 152.562L166.298 154.1C165.427 154.61 164.58 155.163 163.722 155.692C162.862 156.216 162.028 156.785 161.182 157.332C160.334 157.875 159.498 158.436 158.675 159.019L156.196 160.75C154.543 161.906 152.929 163.122 151.289 164.319C149.651 165.518 148.012 166.731 146.306 167.896C145.474 168.496 144.579 169.042 143.711 169.612C142.822 170.164 141.919 170.703 140.985 171.203C140.04 171.696 139.098 172.188 138.085 172.582C137.111 173.035 136.042 173.319 135.013 173.664L133.087 174.307L133.034 172.243L132.923 167.951C132.879 166.52 132.785 165.095 132.719 163.666C132.655 162.237 132.51 160.818 132.406 159.392C132.291 157.969 132.111 156.556 131.966 155.136C131.765 153.728 131.597 152.311 131.349 150.912L130.976 148.814C130.843 148.117 130.677 147.429 130.53 146.735C130.389 146.039 130.209 145.356 130.022 144.675C129.839 143.992 129.668 143.304 129.438 142.64C129.023 141.292 128.541 139.969 127.979 138.685C127.692 138.046 127.416 137.401 127.075 136.792L126.583 135.866L126.04 134.973C125.303 133.789 124.483 132.656 123.551 131.602C121.73 129.465 119.481 127.632 117.522 125.426C116.534 124.335 115.664 123.122 114.929 121.847C114.169 120.58 113.619 119.21 113.116 117.84C112.655 116.453 112.288 115.045 112.008 113.619C111.885 112.904 111.729 112.191 111.636 111.477L111.354 109.335C111.341 109.244 111.406 109.16 111.497 109.147C111.583 109.134 111.665 109.194 111.681 109.28Z" fill="white"/>
<path d="M447.356 168.21C445.372 165.199 441.774 165.845 435.594 167.594C426.739 170.101 398.147 167.223 398.147 167.223L380.252 180.291L401.472 186.835C404.117 193.621 410.709 195.777 415.519 192.842L445.999 174.248C447.944 173.05 448.612 170.115 447.356 168.21Z" fill="black"/>
<path d="M283.632 160.266C316.887 170.029 326.707 173.235 397.388 186.112L406.314 167.408C350.66 137.48 312.298 119.278 268.806 110.646C244.665 119.533 188.588 200.584 174.588 229.465C168.54 247.21 204.753 271.958 217.411 267.274C236.678 260.144 269.292 209.192 283.632 160.266Z" fill="#25544B"/>
<path d="M207.784 117.878C211.34 122.028 206.85 125.763 206.85 125.763C206.85 125.763 215.878 121.037 211.733 115.124C207.86 109.604 204.889 106.862 220.968 97.412C220.968 97.412 195.73 103.8 207.784 117.878Z" fill="#D69176"/>
<path d="M214.139 80.5388C214.139 80.5388 221.798 88.3066 206.874 100.249C194.904 109.828 204.143 115.295 206.868 121.534C199.88 115.145 194.755 109.517 198.196 104.284C203.241 96.6008 217.228 92.876 214.139 80.5388Z" fill="#D69176"/>
<path d="M289.563 138.886C289.563 138.886 289.632 139.235 289.752 139.846C289.815 140.151 289.882 140.523 289.956 140.949C290.022 141.378 290.054 141.878 290.112 142.423C290.138 142.697 290.164 142.983 290.193 143.279C290.201 143.573 290.209 143.876 290.219 144.187C290.232 144.812 290.251 145.477 290.195 146.159C290.149 146.841 290.135 147.557 290.012 148.267C289.917 148.982 289.816 149.712 289.658 150.43C289.528 151.156 289.38 151.878 289.225 152.594C289.095 153.318 288.869 154 288.638 154.655C288.364 155.293 288.065 155.895 287.718 156.433C287.375 156.972 287.028 157.467 286.662 157.896C286.31 158.331 285.937 158.699 285.609 159.021C285.268 159.335 284.959 159.595 284.683 159.794C284.141 160.195 283.766 160.368 283.766 160.368C283.671 160.412 283.558 160.37 283.515 160.275C283.5 160.242 283.495 160.207 283.499 160.173L283.5 160.167C283.5 160.167 283.551 159.775 283.682 159.141C283.744 158.823 283.83 158.445 283.935 158.023C284.038 157.599 284.165 157.135 284.302 156.63C284.599 155.634 284.933 154.494 285.422 153.336C285.655 152.752 285.985 152.182 286.269 151.578C286.571 150.98 286.86 150.361 287.085 149.719C287.337 149.085 287.535 148.435 287.728 147.791C287.939 147.151 288.088 146.507 288.253 145.883C288.438 145.262 288.519 144.647 288.647 144.064C288.706 143.772 288.763 143.488 288.819 143.213C288.855 142.938 288.89 142.673 288.923 142.417C288.986 141.903 289.066 141.434 289.097 141.003C289.117 140.571 289.139 140.194 289.163 139.884C289.206 139.262 289.231 138.907 289.231 138.907C289.238 138.815 289.318 138.745 289.411 138.752C289.488 138.756 289.549 138.812 289.563 138.886Z" fill="white"/>
<path d="M280.502 144.615C280.502 144.615 280.903 145.551 281.435 146.968C281.708 147.675 282.029 148.498 282.341 149.389C282.671 150.275 282.973 151.23 283.292 152.182C283.593 153.139 284.076 154.057 284.292 154.967C284.493 155.881 284.484 156.774 284.429 157.551C284.368 158.328 284.222 158.995 284.076 159.472C283.935 159.948 283.796 160.233 283.796 160.233C283.744 160.337 283.617 160.381 283.512 160.329C283.496 160.322 283.481 160.312 283.469 160.302C283.469 160.302 283.226 160.098 282.905 159.72C282.578 159.342 282.175 158.789 281.806 158.103C281.442 157.415 281.074 156.6 280.888 155.684C280.718 154.765 280.789 153.73 280.679 152.734C280.586 151.734 280.477 150.738 280.421 149.794C280.347 148.854 280.308 147.97 280.272 147.213C280.187 145.702 280.176 144.685 280.176 144.685C280.175 144.591 280.25 144.514 280.344 144.513C280.414 144.511 280.475 144.554 280.502 144.615Z" fill="white"/>
<path d="M367.884 259.77C345.143 259.77 326.708 241.37 326.708 218.673C326.708 195.976 345.143 177.577 367.884 177.577C390.625 177.577 409.06 195.976 409.06 218.673C409.06 241.37 390.625 259.77 367.884 259.77Z" fill="#D69176"/>
<path d="M367.333 403H326.708V218.37H409.06V361.354C409.06 384.354 390.378 403 367.333 403Z" fill="#D69176"/>
<path d="M97.4088 403H232.714V218.673C232.714 195.976 214.28 177.577 191.539 177.577H41.184C16.1247 177.577 -3.12452 199.73 0.422236 224.49L15.8852 332.44C21.6844 372.927 56.4292 403 97.4088 403Z" fill="#B76F58"/>
<path d="M232.707 218.37C232.543 195.813 214.178 177.576 191.539 177.576C168.9 177.576 150.534 195.813 150.37 218.37H150.362V218.672V361.902C150.362 384.599 168.797 402.998 191.539 402.998H232.714V218.673V218.37H232.707V218.37Z" fill="#D69176"/>
<path d="M408.559 365.907L407.878 329.022L407.558 310.581L407.307 292.138L406.806 255.254L406.446 218.37L408.809 220.729H408.802C407.549 220.739 406.519 219.764 406.447 218.53L406.439 218.386C406.388 217.476 406.396 216.563 406.289 215.658C406.224 214.749 406.1 213.848 405.965 212.948C405.914 212.496 405.811 212.052 405.729 211.605C405.637 211.16 405.573 210.709 405.455 210.27C405.246 209.384 405.026 208.503 404.751 207.637C404.628 207.199 404.49 206.766 404.332 206.341C404.178 205.913 404.037 205.481 403.874 205.057L403.359 203.796C403.199 203.37 402.986 202.968 402.8 202.554C402.435 201.721 401.985 200.932 401.569 200.125C401.101 199.346 400.667 198.548 400.15 197.8C399.807 197.205 399.438 196.627 399.048 196.061C398.677 195.48 398.263 194.933 397.852 194.378C397.031 193.272 396.13 192.225 395.197 191.204C394.722 190.702 394.229 190.215 393.742 189.723C393.228 189.259 392.73 188.774 392.203 188.324C391.147 187.424 390.057 186.556 388.907 185.77C388.335 185.372 387.76 184.979 387.159 184.624C386.571 184.247 385.966 183.899 385.349 183.569C384.128 182.887 382.857 182.295 381.564 181.75C380.27 181.208 378.939 180.752 377.592 180.339L375.548 179.796C374.858 179.656 374.17 179.493 373.475 179.366C372.082 179.125 370.675 178.938 369.26 178.836C368.557 178.806 367.831 178.728 367.142 178.735C366.41 178.727 365.673 178.714 364.982 178.75C363.581 178.776 362.139 178.918 360.725 179.092C360.014 179.179 359.31 179.31 358.601 179.419C357.901 179.568 357.192 179.689 356.494 179.86C355.099 180.196 353.706 180.567 352.348 181.044C350.979 181.495 349.647 182.047 348.325 182.628C347.022 183.247 345.724 183.891 344.489 184.644C343.235 185.368 342.05 186.206 340.884 187.069L340.876 187.074C340.765 187.156 340.608 187.132 340.526 187.021C340.447 186.914 340.466 186.765 340.566 186.681C341.691 185.734 342.841 184.807 344.07 183.989C345.281 183.142 346.561 182.402 347.856 181.685C349.169 181.003 350.502 180.35 351.88 179.798C353.247 179.218 354.658 178.745 356.08 178.306C356.791 178.084 357.515 177.911 358.234 177.711C358.961 177.552 359.686 177.369 360.419 177.232C361.892 176.956 363.352 176.717 364.871 176.59C365.638 176.505 366.363 176.473 367.093 176.435C367.865 176.382 368.601 176.411 369.359 176.396C370.864 176.407 372.37 176.508 373.873 176.67C374.623 176.757 375.369 176.88 376.118 176.986L378.347 177.426C379.823 177.773 381.29 178.173 382.729 178.669C384.166 179.167 385.588 179.721 386.966 180.375C387.661 180.691 388.346 181.028 389.015 181.397C389.697 181.745 390.355 182.132 391.01 182.527C392.327 183.309 393.588 184.182 394.818 185.1C395.431 185.561 396.018 186.057 396.619 186.536C397.194 187.045 397.774 187.551 398.338 188.074C399.45 189.138 400.529 190.243 401.529 191.419C402.029 192.008 402.533 192.594 402.992 193.216C403.471 193.824 403.929 194.448 404.36 195.091C404.931 195.943 405.417 196.848 405.932 197.734C406.395 198.649 406.888 199.548 407.292 200.491C407.497 200.96 407.729 201.418 407.906 201.899L408.471 203.328C408.65 203.808 408.804 204.297 408.972 204.78C409.145 205.263 409.295 205.752 409.429 206.247C409.727 207.227 409.965 208.222 410.188 209.221C410.315 209.717 410.385 210.225 410.482 210.728C410.569 211.232 410.675 211.732 410.73 212.241C410.869 213.255 410.988 214.27 411.048 215.29C411.148 216.308 411.129 217.331 411.166 218.351L408.803 216.008H408.81L408.851 216.009C410.144 216.019 411.183 217.073 411.173 218.363V218.367L410.812 255.251L410.312 292.136L410.061 310.578L409.741 329.02L409.06 365.904C409.057 366.042 408.943 366.152 408.805 366.149C408.669 366.15 408.561 366.04 408.559 365.907ZM232.464 365.907L231.783 329.022L231.463 310.581L231.212 292.138L230.712 255.254L230.351 218.37L232.714 220.729H232.707C231.454 220.739 230.424 219.764 230.352 218.53L230.344 218.386C230.293 217.476 230.301 216.563 230.194 215.658C230.129 214.749 230.005 213.848 229.87 212.948C229.819 212.496 229.716 212.052 229.634 211.605C229.543 211.16 229.479 210.709 229.36 210.27C229.151 209.384 228.931 208.503 228.656 207.637C228.534 207.199 228.396 206.766 228.237 206.341C228.083 205.913 227.943 205.481 227.779 205.058L227.264 203.796C227.104 203.371 226.891 202.968 226.705 202.554C226.34 201.722 225.89 200.932 225.474 200.125C225.006 199.346 224.572 198.548 224.055 197.8C223.712 197.205 223.343 196.627 222.952 196.061C222.582 195.481 222.167 194.933 221.757 194.378C220.936 193.272 220.035 192.225 219.102 191.204C218.627 190.702 218.134 190.215 217.647 189.723C217.134 189.259 216.636 188.774 216.109 188.324C215.052 187.424 213.963 186.556 212.813 185.77C212.241 185.372 211.666 184.979 211.065 184.624C210.477 184.247 209.872 183.899 209.255 183.569C208.034 182.887 206.763 182.295 205.47 181.75C204.176 181.208 202.845 180.752 201.498 180.339L199.454 179.796C198.764 179.656 198.076 179.493 197.38 179.366C195.988 179.125 194.581 178.938 193.165 178.836C192.462 178.806 191.737 178.728 191.047 178.735C190.314 178.727 189.578 178.714 188.887 178.75C187.487 178.776 186.045 178.918 184.63 179.092C183.919 179.179 183.215 179.31 182.506 179.419C181.806 179.568 181.097 179.689 180.399 179.86C179.005 180.196 177.611 180.567 176.253 181.044C174.885 181.495 173.552 182.047 172.23 182.628C170.927 183.247 169.63 183.89 168.394 184.643C167.14 185.367 165.956 186.205 164.789 187.068L164.781 187.073C164.67 187.155 164.513 187.131 164.432 187.02C164.352 186.914 164.371 186.764 164.472 186.68C165.596 185.733 166.747 184.806 167.975 183.988C169.186 183.141 170.466 182.402 171.761 181.684C173.074 181.002 174.407 180.349 175.784 179.797C177.152 179.217 178.563 178.744 179.985 178.305C180.695 178.083 181.419 177.91 182.139 177.711C182.866 177.551 183.591 177.368 184.324 177.231C185.796 176.955 187.258 176.716 188.776 176.59C189.543 176.505 190.269 176.472 190.998 176.435C191.77 176.381 192.506 176.41 193.264 176.395C194.769 176.406 196.275 176.507 197.778 176.669C198.528 176.756 199.274 176.879 200.023 176.984L202.252 177.424C203.728 177.771 205.194 178.171 206.634 178.667C208.07 179.165 209.493 179.72 210.871 180.374C211.566 180.689 212.251 181.027 212.92 181.396C213.602 181.743 214.26 182.13 214.916 182.526C216.232 183.307 217.493 184.182 218.723 185.099C219.336 185.56 219.922 186.056 220.524 186.535C221.099 187.044 221.679 187.549 222.244 188.072C223.355 189.137 224.434 190.241 225.434 191.417C225.934 192.006 226.438 192.592 226.897 193.215C227.376 193.823 227.834 194.447 228.266 195.09C228.836 195.942 229.322 196.846 229.837 197.732C230.3 198.647 230.793 199.547 231.196 200.489C231.402 200.958 231.633 201.416 231.811 201.897L232.376 203.326C232.554 203.806 232.709 204.295 232.877 204.778C233.049 205.261 233.2 205.75 233.334 206.245C233.632 207.224 233.87 208.221 234.093 209.219C234.22 209.716 234.29 210.224 234.387 210.726C234.474 211.23 234.58 211.731 234.635 212.239C234.774 213.253 234.894 214.268 234.953 215.289C235.053 216.307 235.034 217.329 235.071 218.349L232.708 216.007H232.715L232.756 216.008C234.049 216.018 235.088 217.071 235.078 218.361V218.366L234.717 255.25L234.217 292.134L233.966 310.577L233.647 329.018L232.966 365.903C232.963 366.041 232.849 366.151 232.71 366.147C232.574 366.15 232.467 366.04 232.464 365.907Z" fill="#B76F58"/>
<path d="M143.218 108.642C128.6 106.895 125.924 97.1347 125.924 97.1347C125.924 97.1347 128.52 81.1576 131.689 84.112C134.857 87.0664 152.894 91.176 156.394 88.9155C158.783 87.3729 159.446 94.9891 159.625 102.066C159.709 105.356 156.209 110.194 143.218 108.642Z" fill="#797D62"/>
<path d="M208.191 117.213C211.748 121.363 207.257 125.098 207.257 125.098C207.257 125.098 216.285 120.372 212.141 114.459C208.268 108.939 205.297 106.197 221.376 96.7483C221.376 96.7474 196.138 103.135 208.191 117.213Z" fill="white"/>
<path d="M214.546 79.8741C214.546 79.8741 222.204 87.6411 207.281 99.5844C195.312 109.164 204.551 114.63 207.275 120.87C200.287 114.48 195.162 108.852 198.602 103.619C203.648 95.9362 217.635 92.2113 214.546 79.8741Z" fill="white"/>
</svg>
